HIERARCHY
ROOT Hips
{
	OFFSET 0.00000 0.00000 0.00000
	CHANNELS 6 Xposition Yposition Zposition Zrotation Yrotation Xrotation 
	JOINT LHipJoint
	{
		OFFSET 0 0 0
		CHANNELS 3 Zrotation Yrotation Xrotation
		JOINT LeftHip
		{
			OFFSET 1.59801 -1.77853 0.57028
			CHANNELS 3 Zrotation Yrotation Xrotation
			JOINT LeftKnee
			{
				OFFSET 2.39439 -6.57854 0.00000
				CHANNELS 3 Zrotation Yrotation Xrotation
				JOINT LeftAnkle
				{
					OFFSET 2.69334 -7.39989 0.00000
					CHANNELS 3 Zrotation Yrotation Xrotation
					JOINT LeftToe
					{
						OFFSET 0.09553 -0.26245 1.73747
						CHANNELS 3 Zrotation Yrotation Xrotation
						End Site
						{
							OFFSET 0.00000 -0.00000 0.89391
						}
					}
				}
			}
		}
	}
	JOINT RHipJoint
	{
		OFFSET 0 0 0
		CHANNELS 3 Zrotation Yrotation Xrotation
		JOINT RightHip
		{
			OFFSET -1.54704 -1.77852 0.57028
			CHANNELS 3 Zrotation Yrotation Xrotation
			JOINT RightKnee
			{
				OFFSET -2.40286 -6.60180 0.00000
				CHANNELS 3 Zrotation Yrotation Xrotation
				JOINT RightAnkle
				{
					OFFSET -2.63873 -7.24984 0.00000
					CHANNELS 3 Zrotation Yrotation Xrotation
					JOINT RightToe
					{
						OFFSET -0.15631 -0.42945 1.84436
						CHANNELS 3 Zrotation Yrotation Xrotation
						End Site
						{
							OFFSET -0.00000 -0.00000 0.95734
						}
					}
				}
			}
		}
	}
	JOINT lowerback
	{
		OFFSET 0 0 0
		CHANNELS 3 Zrotation Yrotation Xrotation
		JOINT Chest
		{
			OFFSET -0.00436 1.89866 -0.04018
			CHANNELS 3 Zrotation Yrotation Xrotation
			JOINT Chest2
			{
				OFFSET 0.02031 1.88273 0.09634
				CHANNELS 3 Zrotation Yrotation Xrotation
				JOINT lowerneck
				{
					OFFSET 0 0 0
					CHANNELS 3 Zrotation Yrotation Xrotation
					JOINT Neck
					{
						OFFSET -0.13105 1.89371 0.23083
						CHANNELS 3 Zrotation Yrotation Xrotation
						JOINT Head
						{
							OFFSET 0.17062 1.83990 -0.54062
							CHANNELS 3 Zrotation Yrotation Xrotation
							End Site
							{
								OFFSET 0.04576 1.94782 -0.21839
							}
						}
					}
				}
				JOINT LeftCollar
				{
					OFFSET 0 0 0
					CHANNELS 3 Zrotation Yrotation Xrotation
					JOINT LeftShoulder
					{
						OFFSET 3.12424 1.09204 0.22226
CHANNELS 3 Zrotation Xrotation Yrotation
						JOINT LeftElbow
						{
OFFSET 0 -5.292770 0.000000
CHANNELS 3 Zrotation Xrotation Yrotation
							JOINT LeftWrist
							{
OFFSET 0 -2.852260 0.000000
CHANNELS 3 Zrotation Xrotation Yrotation
								JOINT lhand
								{
									OFFSET 0 0 0
CHANNELS 3 Zrotation Xrotation Yrotation
									JOINT LFingers
									{
OFFSET 0 -0.602100 0.000000
CHANNELS 3 Zrotation Xrotation Yrotation
										End Site
										{
OFFSET 0 -0.485430 0.000000
										}
									}
								}
								JOINT LThumb
								{
OFFSET 0 0.000000 0.000000
CHANNELS 3 Zrotation Xrotation Yrotation
									End Site
									{
OFFSET 0 -0.492840 0.492840
									}
								}
							}
						}
					}
				}
				JOINT RightCollar
				{
					OFFSET 0 0 0
					CHANNELS 3 Zrotation Yrotation Xrotation
					JOINT RightShoulder
					{
						OFFSET -2.91709 1.01504 0.30199
CHANNELS 3 Zrotation Xrotation Yrotation
						JOINT RightElbow
						{
OFFSET 0 -5.133040 0.000000
CHANNELS 3 Zrotation Xrotation Yrotation
							JOINT RightWrist
							{
OFFSET 0 -2.743050 0.000000
CHANNELS 3 Zrotation Xrotation Yrotation
								JOINT rhand
								{
									OFFSET 0 0 0
CHANNELS 3 Zrotation Xrotation Yrotation
									JOINT RFingers
									{
OFFSET 0 -0.767980 0.000000
CHANNELS 3 Zrotation Xrotation Yrotation
										End Site
										{
OFFSET 0 -0.619160 0.000000
										}
									}
								}
								JOINT RThumb
								{
OFFSET 0 0.000000 0.000000
CHANNELS 3 Zrotation Xrotation Yrotation
									End Site
									{
OFFSET 0 -0.628620 0.628620
									}
								}
							}
						}
					}
				}
			}
		}
	}
}
MOTION
Frames: 4
Frame Time: 0.008333333333333333
0.069300 17.500000 -0.092900 -1.696300 0.405600 7.032800 0.000000 0.000000 0.000000 -17.639500 -21.991100 0.757800 0.575400 4.857500 13.502400 0.299000 10.232000 -18.579600 0.742700 -5.505200 -15.355200 0.000000 0.000000 0.000000 20.396900 7.697100 4.082900 0.000000 0.000000 -0.000000 -0.032400 -5.861800 -9.221200 -0.631100 5.083000 -14.145500 -0.243100 -0.082500 -4.812700 2.052300 -0.085800 -4.057700 2.242500 -0.009900 -1.470200 -12.938900 -8.953900 -19.741400 7.950100 -11.980400 35.521000 3.263000 -5.582300 17.881600 0.000000 -0.000000 0.000000 -2.339000 2.139300 -32.727900 8.257100 -13.968800 1.013300 8.978200 30.082900 -21.623600 0.000000 0.000000 0.000000 -7.125000 0.000000 0.000000 -19.738200 50.773300 2.905300 0.000000 -0.000000 0.000000 -2.203600 4.577700 22.387000 -11.066400 -18.390000 -1.796800 -11.088200 26.836900 -13.203600 0.000000 0.000000 0.000000 7.125000 0.000000 -0.000000 11.175600 16.692900 7.642600
0.073305 17.498505 -0.085713 -1.740771 0.269856 7.030580 0.000000 0.000000 0.000000 -17.564727 -21.868028 0.672581 0.583640 4.891747 13.600179 0.321878 10.167884 -18.772016 0.740609 -5.497468 -15.333030 0.000000 0.000000 0.000000 20.420591 7.826319 4.136492 0.000000 0.000000 0.000000 -0.033715 -5.846313 -9.235096 -0.627899 5.070268 -14.109147 -0.149190 -0.030384 -4.821353 2.056649 -0.018972 -4.082461 2.196544 0.021748 -1.493698 -12.999948 -8.964286 -19.818422 7.922454 -11.971099 35.699760 3.265318 -5.589071 18.002846 0.000000 0.000000 0.000000 -2.441291 2.203942 -32.317368 8.201730 -13.879408 0.999933 8.837620 30.389455 -21.784966 0.000000 0.000000 0.000000 -7.125000 0.000000 0.000000 -19.948104 50.902920 3.003645 0.000000 0.000000 0.000000 -2.208498 4.522220 21.314196 -11.031040 -18.335915 -1.785645 -10.563728 28.628686 -13.398964 0.000000 0.000000 0.000000 7.125000 0.000000 0.000000 11.528164 16.530694 7.935358
0.076055 17.497790 -0.082385 -1.762799 0.206616 7.021150 0.000000 0.000000 0.000000 -17.604060 -21.805591 0.673731 0.590145 4.918264 13.675587 0.308861 10.280267 -18.746579 0.779061 -5.635206 -15.729635 0.000000 0.000000 0.000000 20.442059 7.882714 4.173345 0.000000 0.000000 0.000000 -0.031890 -5.871660 -9.222335 -0.661689 5.202688 -14.487534 -0.100812 -0.015951 -4.816229 2.032994 -0.001207 -4.101309 2.145658 0.029479 -1.516565 -12.888259 -8.932119 -19.773994 7.857577 -11.945430 35.707289 3.224061 -5.574035 17.973509 0.000000 0.000000 0.000000 -2.471977 2.230794 -32.117195 8.159205 -13.810631 0.989750 9.010964 30.557132 -21.861993 0.000000 0.000000 0.000000 -7.125000 0.000000 0.000000 -19.822000 51.003223 3.033559 0.000000 0.000000 0.000000 -2.169003 4.537920 21.747660 -10.951510 -18.213870 -1.760735 -11.222129 27.240097 -13.335846 0.000000 0.000000 0.000000 7.125000 0.000000 0.000000 11.080635 16.552684 7.609570
0.077687 17.497168 -0.079290 -1.891772 0.207647 7.009578 0.000000 0.000000 0.000000 -17.468612 -21.817017 0.597764 0.604757 4.977907 13.845525 0.347401 10.044049 -18.926637 0.672323 -5.243464 -14.604176 0.000000 0.000000 0.000000 20.582697 7.889039 4.200352 0.000000 0.000000 0.000000 -0.032313 -5.858606 -9.216263 -0.668791 5.229807 -14.565101 -0.026390 -0.062825 -4.743121 2.086789 -0.063667 -4.175143 2.157471 -0.001883 -1.631228 -12.664528 -8.830995 -19.834502 7.706363 -11.818357 35.820891 3.147715 -5.512246 17.994222 0.000000 0.000000 0.000000 -2.539625 2.365286 -31.986793 8.153903 -13.802035 0.988537 9.027776 30.720047 -21.988524 0.000000 0.000000 0.000000 -7.125000 0.000000 0.000000 -19.867592 51.125074 3.102080 0.000000 0.000000 0.000000 -2.161545 4.645274 21.702370 -10.995041 -18.280600 -1.774363 -10.964443 27.658740 -13.347452 0.000000 0.000000 0.000000 7.125000 0.000000 0.000000 11.256317 16.557233 7.733898
